<svg xmlns="http://www.w3.org/2000/svg" viewBox="23.96 -731.00 4779.04 747.00" fill="#ffc300" aria-label="Socialvest">
<g transform="scale(1 -1)">
<path transform="translate(0.00 0)" d="M176 237H24Q23 171 48.0 123.0Q73 75 115.5 44.0Q158 13 213.5 -1.5Q269 -16 328 -16Q401 -16 456.5 1.0Q512 18 549.5 48.5Q587 79 606.0 121.0Q625 163 625 212Q625 272 599.5 310.5Q574 349 539.0 372.0Q504 395 468.5 405.5Q433 416 413 420Q346 437 304.5 448.0Q263 459 239.5 470.0Q216 481 208.0 494.0Q200 507 200 528Q200 551 210.0 566.0Q220 581 235.5 591.0Q251 601 270.0 605.0Q289 609 308 609Q337 609 361.5 604.0Q386 599 405.0 587.0Q424 575 435.5 554.0Q447 533 449 501H601Q601 563 577.5 606.5Q554 650 514.0 678.0Q474 706 422.5 718.5Q371 731 315 731Q267 731 219.0 718.0Q171 705 133.0 678.0Q95 651 71.5 610.5Q48 570 48 515Q48 466 66.5 431.5Q85 397 115.0 374.0Q145 351 183.0 336.5Q221 322 261 312Q300 301 338.0 292.0Q376 283 406.0 271.0Q436 259 454.5 241.0Q473 223 473 194Q473 167 459.0 149.5Q445 132 424.0 122.0Q403 112 379.0 108.5Q355 105 334 105Q303 105 274.0 112.5Q245 120 223.5 135.5Q202 151 189.0 176.0Q176 201 176 237Z"/>
<path transform="translate(639.00 0)" d="M180 258Q180 289 186.0 319.0Q192 349 206.5 372.0Q221 395 245.0 409.5Q269 424 305 424Q341 424 365.5 409.5Q390 395 404.5 372.0Q419 349 425.0 319.0Q431 289 431 258Q431 227 425.0 197.5Q419 168 404.5 144.5Q390 121 365.5 107.0Q341 93 305 93Q269 93 245.0 107.0Q221 121 206.5 144.5Q192 168 186.0 197.5Q180 227 180 258ZM38 258Q38 196 57.0 146.0Q76 96 111.0 60.5Q146 25 195.0 6.0Q244 -13 305 -13Q366 -13 415.5 6.0Q465 25 500.0 60.5Q535 96 554.0 146.0Q573 196 573 258Q573 320 554.0 370.5Q535 421 500.0 456.5Q465 492 415.5 511.5Q366 531 305 531Q244 531 195.0 511.5Q146 492 111.0 456.5Q76 421 57.0 370.5Q38 320 38 258Z"/>
<path transform="translate(1240.00 0)" d="M406 335H545Q542 385 521.0 421.5Q500 458 466.5 482.5Q433 507 390.5 519.0Q348 531 302 531Q239 531 190.0 510.0Q141 489 107.0 451.5Q73 414 55.5 362.5Q38 311 38 251Q38 193 57.0 144.5Q76 96 110.0 61.0Q144 26 192.5 6.5Q241 -13 299 -13Q402 -13 468.0 41.0Q534 95 548 198H411Q404 150 376.5 121.5Q349 93 298 93Q265 93 242.0 108.0Q219 123 205.5 146.5Q192 170 186.0 199.0Q180 228 180 256Q180 285 186.0 314.5Q192 344 206.5 368.5Q221 393 244.0 408.5Q267 424 301 424Q392 424 406 335Z"/>
<path transform="translate(1804.00 0)" d="M200 597V714H58V597ZM58 517V0H200V517Z"/>
<path transform="translate(2052.00 0)" d="M48 358Q51 408 73.0 441.0Q95 474 129.0 494.0Q163 514 205.5 522.5Q248 531 291 531Q330 531 370.0 525.5Q410 520 443.0 504.0Q476 488 497.0 459.5Q518 431 518 384V115Q518 80 522.0 48.0Q526 16 536 0H392Q388 12 385.5 24.5Q383 37 382 50Q348 15 302.0 1.0Q256 -13 208 -13Q171 -13 139.0 -4.0Q107 5 83.0 24.0Q59 43 45.5 72.0Q32 101 32 141Q32 185 47.5 213.5Q63 242 87.5 259.0Q112 276 143.5 284.5Q175 293 207.0 298.0Q239 303 270.0 306.0Q301 309 325.0 315.0Q349 321 363.0 332.5Q377 344 376 366Q376 389 368.5 402.5Q361 416 348.5 423.5Q336 431 319.5 433.5Q303 436 284 436Q242 436 218.0 418.0Q194 400 190 358ZM376 253Q367 245 353.5 240.5Q340 236 324.5 233.0Q309 230 292.0 228.0Q275 226 258 223Q242 220 226.5 215.0Q211 210 199.5 201.5Q188 193 181.0 180.0Q174 167 174 147Q174 128 181.0 115.0Q188 102 200.0 94.5Q212 87 228.0 84.0Q244 81 261 81Q303 81 326.0 95.0Q349 109 360.0 128.5Q371 148 373.5 168.0Q376 188 376 200Z"/>
<path transform="translate(2616.00 0)" d="M58 714V0H200V714Z"/>
<path transform="translate(2864.00 0)" d="M340 0 515 517H374L265 164H263L154 517H5L182 0Z"/>
<path transform="translate(3374.00 0)" d="M402 314H171Q172 329 177.5 348.0Q183 367 196.5 384.0Q210 401 232.5 412.5Q255 424 289 424Q341 424 366.5 396.0Q392 368 402 314ZM171 224H544Q548 284 534.0 339.0Q520 394 488.5 437.0Q457 480 408.0 505.5Q359 531 293 531Q234 531 185.5 510.0Q137 489 102.0 452.5Q67 416 48.0 366.0Q29 316 29 258Q29 198 47.5 148.0Q66 98 100.0 62.0Q134 26 183.0 6.5Q232 -13 293 -13Q381 -13 443.0 27.0Q505 67 535 160H410Q403 136 372.0 114.5Q341 93 298 93Q238 93 206.0 124.0Q174 155 171 224Z"/>
<path transform="translate(3938.00 0)" d="M164 168H29Q31 116 52.5 81.5Q74 47 107.5 26.0Q141 5 184.0 -4.0Q227 -13 272 -13Q316 -13 358.5 -4.5Q401 4 434.0 25.0Q467 46 487.5 80.5Q508 115 508 166Q508 202 494.0 226.5Q480 251 457.0 267.5Q434 284 404.5 294.0Q375 304 344 311Q314 318 285.0 324.0Q256 330 233.5 337.5Q211 345 197.0 357.0Q183 369 183 388Q183 404 191.0 413.5Q199 423 210.5 428.0Q222 433 236.0 434.5Q250 436 262 436Q300 436 328.0 421.5Q356 407 359 366H494Q490 414 469.5 445.5Q449 477 418.0 496.0Q387 515 347.5 523.0Q308 531 266 531Q224 531 184.0 523.5Q144 516 112.0 497.5Q80 479 60.5 447.0Q41 415 41 365Q41 331 55.0 307.5Q69 284 92.0 268.5Q115 253 144.5 243.5Q174 234 205 227Q281 211 323.5 195.0Q366 179 366 147Q366 128 357.0 115.5Q348 103 334.5 95.5Q321 88 304.5 84.5Q288 81 273 81Q252 81 232.5 86.0Q213 91 198.0 101.5Q183 112 173.5 128.5Q164 145 164 168Z"/>
<path transform="translate(4465.00 0)" d="M234 517V672H92V517H6V422H92V117Q92 78 105.0 54.0Q118 30 140.5 17.0Q163 4 192.5 -0.5Q222 -5 255 -5Q276 -5 298.0 -4.0Q320 -3 338 0V110Q328 108 317.0 107.0Q306 106 294 106Q258 106 246.0 118.0Q234 130 234 166V422H338V517Z"/>
</g>
</svg>